<svg data-v-423bf9ae="" xmlns="http://www.w3.org/2000/svg" viewBox="0 0 550 90" class="iconLeft"><!----><!----><!----><g data-v-423bf9ae="" id="8df5db09-6e81-46c4-a1ec-8f912058c96c" fill="#ffffff" transform="matrix(5.357142948374458,0,0,5.357142948374458,90.33123531694301,9.374998490725247)"><path d="M0.70 12.02L0.70 12.02L0.70 1.27L0.70 1.27Q0.70 1.05 0.92 1.05L0.92 1.05L6.08 1.05L6.08 1.05Q6.30 1.05 6.30 1.27L6.30 1.27L6.30 2.67L6.30 2.67Q6.30 2.78 6.24 2.84L6.24 2.84L6.24 2.84Q6.18 2.90 6.08 2.90L6.08 2.90L2.60 2.90L2.60 5.71L5.24 5.71L5.24 5.71Q5.46 5.71 5.46 5.93L5.46 5.93L5.46 7.33L5.46 7.33Q5.46 7.56 5.24 7.56L5.24 7.56L2.60 7.56L2.60 12.02L2.60 12.02Q2.60 12.13 2.54 12.19L2.54 12.19L2.54 12.19Q2.48 12.25 2.38 12.25L2.38 12.25L0.92 12.25L0.92 12.25Q0.70 12.25 0.70 12.02ZM7.56 12.02L7.56 12.02L7.56 2.67L7.56 2.67Q7.56 2.57 7.62 2.51L7.62 2.51L7.62 2.51Q7.68 2.45 7.79 2.45L7.79 2.45L11.15 2.45L11.15 2.45Q12.14 2.45 12.65 2.96L12.65 2.96L12.65 2.96Q13.17 3.47 13.17 4.46L13.17 4.46L13.17 7.28L13.17 7.28Q13.17 8.50 12.38 8.99L12.38 8.99L13.10 12.00L13.10 12.00Q13.17 12.25 12.91 12.25L12.91 12.25L11.54 12.25L11.54 12.25Q11.34 12.25 11.30 12.05L11.30 12.05L10.63 9.30L9.39 9.30L9.39 12.02L9.39 12.02Q9.39 12.13 9.32 12.19L9.32 12.19L9.32 12.19Q9.26 12.25 9.16 12.25L9.16 12.25L7.79 12.25L7.79 12.25Q7.68 12.25 7.62 12.19L7.62 12.19L7.62 12.19Q7.56 12.13 7.56 12.02ZM9.39 4.26L9.39 7.49L10.78 7.49L10.78 7.49Q11.34 7.49 11.34 6.93L11.34 6.93L11.34 4.82L11.34 4.82Q11.34 4.26 10.78 4.26L10.78 4.26L9.39 4.26ZM14.56 10.23L14.56 10.23L14.56 4.46L14.56 4.46Q14.56 3.47 15.07 2.96L15.07 2.96L15.07 2.96Q15.59 2.45 16.58 2.45L16.58 2.45L18.15 2.45L18.15 2.45Q19.14 2.45 19.65 2.96L19.65 2.96L19.65 2.96Q20.17 3.47 20.17 4.46L20.17 4.46L20.17 10.23L20.17 10.23Q20.17 11.22 19.65 11.74L19.65 11.74L19.65 11.74Q19.14 12.25 18.15 12.25L18.15 12.25L16.58 12.25L16.58 12.25Q15.59 12.25 15.07 11.74L15.07 11.74L15.07 11.74Q14.56 11.22 14.56 10.23ZM16.39 4.82L16.39 9.88L16.39 9.88Q16.39 10.45 16.95 10.45L16.95 10.45L17.84 10.45L17.84 10.45Q18.40 10.45 18.40 9.88L18.40 9.88L18.40 4.82L18.40 4.82Q18.40 4.26 17.84 4.26L17.84 4.26L16.95 4.26L16.95 4.26Q16.39 4.26 16.39 4.82L16.39 4.82ZM21.56 12.02L21.56 12.02L21.56 2.67L21.56 2.67Q21.56 2.57 21.62 2.51L21.62 2.51L21.62 2.51Q21.68 2.45 21.79 2.45L21.79 2.45L22.89 2.45L22.89 2.45Q23.06 2.45 23.15 2.63L23.15 2.63L25.78 7.98L25.78 2.67L25.78 2.67Q25.78 2.45 26.00 2.45L26.00 2.45L27.32 2.45L27.32 2.45Q27.42 2.45 27.48 2.51L27.48 2.51L27.48 2.51Q27.54 2.57 27.54 2.67L27.54 2.67L27.54 12.02L27.54 12.02Q27.54 12.13 27.48 12.19L27.48 12.19L27.48 12.19Q27.42 12.25 27.32 12.25L27.32 12.25L26.21 12.25L26.21 12.25Q26.04 12.25 25.96 12.07L25.96 12.07L23.32 6.72L23.32 12.02L23.32 12.02Q23.32 12.25 23.11 12.25L23.11 12.25L21.79 12.25L21.79 12.25Q21.68 12.25 21.62 12.19L21.62 12.19L21.62 12.19Q21.56 12.13 21.56 12.02ZM28.66 2.67L28.66 4.07L28.66 4.07Q28.66 4.18 28.72 4.24L28.72 4.24L28.72 4.24Q28.78 4.30 28.88 4.30L28.88 4.30L30.51 4.30L30.51 12.02L30.51 12.02Q30.51 12.25 30.73 12.25L30.73 12.25L32.19 12.25L32.19 12.25Q32.41 12.25 32.41 12.02L32.41 12.02L32.41 4.30L34.04 4.30L34.04 4.30Q34.26 4.30 34.26 4.07L34.26 4.07L34.26 2.67L34.26 2.67Q34.26 2.45 34.04 2.45L34.04 2.45L28.88 2.45L28.88 2.45Q28.78 2.45 28.72 2.51L28.72 2.51L28.72 2.51Q28.66 2.57 28.66 2.67L28.66 2.67ZM33.99 12.01L33.99 12.01L36.31 2.65L36.31 2.65Q36.35 2.45 36.55 2.45L36.55 2.45L38.50 2.45L38.50 2.45Q38.70 2.45 38.74 2.65L38.74 2.65L41.06 12.01L41.06 12.01Q41.08 12.06 41.08 12.09L41.08 12.09L41.08 12.09Q41.08 12.25 40.87 12.25L40.87 12.25L39.50 12.25L39.50 12.25Q39.33 12.25 39.29 12.05L39.29 12.05L38.83 10.29L36.20 10.29L35.77 12.05L35.77 12.05Q35.73 12.25 35.55 12.25L35.55 12.25L34.17 12.25L34.17 12.25Q33.97 12.25 33.97 12.10L33.97 12.10L33.97 12.10Q33.97 12.06 33.99 12.01ZM37.52 4.86L36.64 8.67L38.40 8.67L37.52 4.86ZM42.19 12.02L42.19 12.02L42.19 2.67L42.19 2.67Q42.19 2.57 42.25 2.51L42.25 2.51L42.25 2.51Q42.31 2.45 42.42 2.45L42.42 2.45L43.52 2.45L43.52 2.45Q43.70 2.45 43.78 2.63L43.78 2.63L46.41 7.98L46.41 2.67L46.41 2.67Q46.41 2.45 46.63 2.45L46.63 2.45L47.95 2.45L47.95 2.45Q48.05 2.45 48.11 2.51L48.11 2.51L48.11 2.51Q48.17 2.57 48.17 2.67L48.17 2.67L48.17 12.02L48.17 12.02Q48.17 12.13 48.11 12.19L48.11 12.19L48.11 12.19Q48.05 12.25 47.95 12.25L47.95 12.25L46.84 12.25L46.84 12.25Q46.67 12.25 46.59 12.07L46.59 12.07L43.96 6.72L43.96 12.02L43.96 12.02Q43.96 12.25 43.74 12.25L43.74 12.25L42.42 12.25L42.42 12.25Q42.31 12.25 42.25 12.19L42.25 12.19L42.25 12.19Q42.19 12.13 42.19 12.02ZM49.57 12.02L49.57 12.02L49.57 2.67L49.57 2.67Q49.57 2.45 49.79 2.45L49.79 2.45L53.16 2.45L53.16 2.45Q54.15 2.45 54.66 2.97L54.66 2.97L54.66 2.97Q55.17 3.49 55.17 4.48L55.17 4.48L55.17 10.23L55.17 10.23Q55.17 11.22 54.66 11.74L54.66 11.74L54.66 11.74Q54.15 12.25 53.16 12.25L53.16 12.25L49.79 12.25L49.79 12.25Q49.57 12.25 49.57 12.02ZM51.47 4.30L51.47 10.40L52.76 10.40L52.76 10.40Q53.32 10.40 53.32 9.84L53.32 9.84L53.32 4.87L53.32 4.87Q53.32 4.30 52.76 4.30L52.76 4.30L51.47 4.30ZM56.57 12.02L56.57 12.02L56.57 1.27L56.57 1.27Q56.57 1.05 56.79 1.05L56.79 1.05L61.95 1.05L61.95 1.05Q62.17 1.05 62.17 1.27L62.17 1.27L62.17 2.67L62.17 2.67Q62.17 2.78 62.11 2.84L62.11 2.84L62.11 2.84Q62.05 2.90 61.95 2.90L61.95 2.90L58.47 2.90L58.47 5.71L61.11 5.71L61.11 5.71Q61.33 5.71 61.33 5.93L61.33 5.93L61.33 7.33L61.33 7.33Q61.33 7.56 61.11 7.56L61.11 7.56L58.47 7.56L58.47 12.02L58.47 12.02Q58.47 12.13 58.41 12.19L58.41 12.19L58.41 12.19Q58.35 12.25 58.25 12.25L58.25 12.25L56.79 12.25L56.79 12.25Q56.57 12.25 56.57 12.02ZM63.57 2.67L63.57 12.02L63.57 12.02Q63.57 12.25 63.79 12.25L63.79 12.25L65.25 12.25L65.25 12.25Q65.35 12.25 65.41 12.19L65.41 12.19L65.41 12.19Q65.47 12.13 65.47 12.02L65.47 12.02L65.47 2.67L65.47 2.67Q65.47 2.57 65.41 2.51L65.41 2.51L65.41 2.51Q65.35 2.45 65.25 2.45L65.25 2.45L63.79 2.45L63.79 2.45Q63.57 2.45 63.57 2.67L63.57 2.67ZM66.87 12.02L66.87 12.02L66.87 2.67L66.87 2.67Q66.87 2.57 66.93 2.51L66.93 2.51L66.93 2.51Q66.99 2.45 67.09 2.45L67.09 2.45L70.46 2.45L70.46 2.45Q71.45 2.45 71.96 2.96L71.96 2.96L71.96 2.96Q72.47 3.47 72.47 4.46L72.47 4.46L72.47 7.28L72.47 7.28Q72.47 8.50 71.69 8.99L71.69 8.99L72.41 12.00L72.41 12.00Q72.47 12.25 72.22 12.25L72.22 12.25L70.85 12.25L70.85 12.25Q70.65 12.25 70.61 12.05L70.61 12.05L69.94 9.30L68.69 9.30L68.69 12.02L68.69 12.02Q68.69 12.13 68.63 12.19L68.63 12.19L68.63 12.19Q68.57 12.25 68.47 12.25L68.47 12.25L67.09 12.25L67.09 12.25Q66.99 12.25 66.93 12.19L66.93 12.19L66.93 12.19Q66.87 12.13 66.87 12.02ZM68.69 4.26L68.69 7.49L70.09 7.49L70.09 7.49Q70.65 7.49 70.65 6.93L70.65 6.93L70.65 4.82L70.65 4.82Q70.65 4.26 70.09 4.26L70.09 4.26L68.69 4.26ZM73.87 10.23L73.87 10.23L73.87 9.32L73.87 9.32Q73.87 9.10 74.09 9.10L74.09 9.10L75.51 9.10L75.51 9.10Q75.74 9.10 75.74 9.32L75.74 9.32L75.74 9.91L75.74 9.91Q75.74 10.47 76.30 10.47L76.30 10.47L77.05 10.47L77.05 10.47Q77.61 10.47 77.61 9.91L77.61 9.91L77.61 8.50L74.25 7.40L74.25 7.40Q73.87 7.28 73.87 6.89L73.87 6.89L73.87 4.46L73.87 4.46Q73.87 3.48 74.39 2.96L74.39 2.96L74.39 2.96Q74.91 2.45 75.89 2.45L75.89 2.45L77.46 2.45L77.46 2.45Q78.45 2.45 78.96 2.96L78.96 2.96L78.96 2.96Q79.47 3.47 79.47 4.46L79.47 4.46L79.47 5.39L79.47 5.39Q79.47 5.61 79.25 5.61L79.25 5.61L77.83 5.61L77.83 5.61Q77.73 5.61 77.67 5.55L77.67 5.55L77.67 5.55Q77.61 5.49 77.61 5.39L77.61 5.39L77.61 4.80L77.61 4.80Q77.61 4.25 77.05 4.25L77.05 4.25L76.28 4.25L76.28 4.25Q76.02 4.25 75.87 4.39L75.87 4.39L75.87 4.39Q75.72 4.53 75.72 4.80L75.72 4.80L75.72 6.00L79.11 7.08L79.11 7.08Q79.47 7.21 79.47 7.60L79.47 7.60L79.47 10.23L79.47 10.23Q79.47 11.22 78.96 11.74L78.96 11.74L78.96 11.74Q78.45 12.25 77.46 12.25L77.46 12.25L75.89 12.25L75.89 12.25Q74.91 12.25 74.39 11.73L74.39 11.73L74.39 11.73Q73.87 11.22 73.87 10.23ZM80.17 2.67L80.17 4.07L80.17 4.07Q80.17 4.18 80.23 4.24L80.23 4.24L80.23 4.24Q80.29 4.30 80.40 4.30L80.40 4.30L82.02 4.30L82.02 12.02L82.02 12.02Q82.02 12.25 82.25 12.25L82.25 12.25L83.71 12.25L83.71 12.25Q83.92 12.25 83.92 12.02L83.92 12.02L83.92 4.30L85.55 4.30L85.55 4.30Q85.78 4.30 85.78 4.07L85.78 4.07L85.78 2.67L85.78 2.67Q85.78 2.45 85.55 2.45L85.55 2.45L80.40 2.45L80.40 2.45Q80.29 2.45 80.23 2.51L80.23 2.51L80.23 2.51Q80.17 2.57 80.17 2.67L80.17 2.67Z"></path></g><!----><g data-v-423bf9ae="" id="de6d8f5d-f628-474d-befd-81fc10451c35" transform="matrix(2.8125,0,0,2.8125,-7.170000076293945,0)" stroke="none" fill="#EBEC0E"><path d="M2.83 18.247l26.34-9.124L2.83 0zM29.17 32V13.753L2.83 22.877z"></path></g><!----></svg>