<svg data-v-423bf9ae="" xmlns="http://www.w3.org/2000/svg" viewBox="0 0 451 90" class="iconLeft"><!----><!----><!----><g data-v-423bf9ae="" id="6d687743-ef9d-45de-89d6-566702e460a9" fill="black" transform="matrix(5.474453012044838,0,0,5.474453012044838,91.56299847403423,0.27372251486014676)"><path d="M2.18 13.47L2.18 9.10L4.35 9.10L4.35 7.41L2.18 7.41L2.18 4.62L4.40 4.62L4.40 2.87L0.46 2.87L0.46 13.47ZM10.04 13.47L10.04 13.41C9.97 13.19 9.93 12.99 9.84 12.18C9.73 11.14 9.70 10.42 9.55 9.62C9.44 9.06 9.31 8.71 9.03 8.51L9.03 8.43C9.49 8.19 9.86 8.06 9.86 5.73C9.86 3.65 9.45 2.87 7.83 2.87L5.10 2.87L5.10 13.47L6.82 13.47L6.82 9.17L7.28 9.17C7.60 9.17 7.71 9.30 7.83 10.07C7.94 10.88 7.97 11.62 8.02 12.15C8.12 13.09 8.15 13.26 8.23 13.47ZM6.82 7.62L6.82 4.58L7.49 4.58C7.84 4.58 8.12 4.61 8.12 5.92C8.12 7.59 7.85 7.62 7.41 7.62ZM14.88 12.78C15.19 12.14 15.32 11.49 15.32 8.16C15.32 4.83 15.19 4.21 14.88 3.56C14.57 2.91 14.03 2.69 12.89 2.69C11.73 2.69 11.20 2.91 10.89 3.56C10.58 4.21 10.46 4.83 10.46 8.16C10.46 11.49 10.58 12.14 10.89 12.78C11.20 13.44 11.73 13.65 12.89 13.65C14.03 13.65 14.57 13.44 14.88 12.78ZM13.47 11.47C13.40 11.72 13.24 11.82 12.89 11.82C12.53 11.82 12.39 11.72 12.32 11.47C12.21 11.10 12.17 10.72 12.17 8.12C12.17 5.47 12.21 5.11 12.32 4.75C12.39 4.49 12.53 4.40 12.89 4.40C13.24 4.40 13.40 4.49 13.47 4.76C13.57 5.11 13.61 5.47 13.61 8.12C13.61 10.72 13.58 11.09 13.47 11.47ZM20.97 13.47L20.97 2.87L19.39 2.87L19.39 7.39L19.32 7.39L17.88 2.87L16.09 2.87L16.09 13.47L17.65 13.47L17.65 6.94L17.72 6.94L20.08 13.47ZM24.79 13.47L24.79 4.62L26.28 4.62L26.28 2.87L21.57 2.87L21.57 4.62L23.07 4.62L23.07 13.47ZM30.88 13.47L30.88 11.63L28.63 11.63L28.63 8.89L30.86 8.89L30.86 7.22L28.63 7.22L28.63 4.62L30.90 4.62L30.90 2.87L26.91 2.87L26.91 13.47ZM36.62 13.47L36.62 2.87L35.04 2.87L35.04 7.39L34.97 7.39L33.53 2.87L31.74 2.87L31.74 13.47L33.31 13.47L33.31 6.94L33.38 6.94L35.73 13.47ZM40.03 13.47C41.19 13.47 41.72 13.27 42.03 12.64C42.34 12.03 42.46 11.44 42.46 8.16C42.46 4.96 42.35 4.34 42.03 3.71C41.71 3.09 41.17 2.87 40.03 2.87L37.52 2.87L37.52 13.47ZM39.24 11.65L39.24 4.62L39.98 4.62C40.33 4.62 40.49 4.70 40.57 4.94C40.70 5.28 40.71 5.71 40.71 8.13C40.71 10.60 40.67 10.98 40.57 11.31C40.49 11.56 40.35 11.65 39.98 11.65ZM44.97 13.47L44.97 9.10L47.14 9.10L47.14 7.41L44.97 7.41L44.97 4.62L47.18 4.62L47.18 2.87L43.25 2.87L43.25 13.47ZM49.67 13.47L49.67 2.87L47.91 2.87L47.91 13.47ZM55.57 13.47L55.57 13.41C55.50 13.19 55.45 12.99 55.37 12.18C55.26 11.14 55.23 10.42 55.08 9.62C54.96 9.06 54.84 8.71 54.56 8.51L54.56 8.43C55.02 8.19 55.38 8.06 55.38 5.73C55.38 3.65 54.98 2.87 53.35 2.87L50.62 2.87L50.62 13.47L52.35 13.47L52.35 9.17L52.81 9.17C53.13 9.17 53.24 9.30 53.35 10.07C53.47 10.88 53.49 11.62 53.55 12.15C53.65 13.09 53.68 13.26 53.76 13.47ZM52.35 7.62L52.35 4.58L53.02 4.58C53.37 4.58 53.65 4.61 53.65 5.92C53.65 7.59 53.38 7.62 52.93 7.62ZM60.24 6.16C60.31 5.91 60.34 5.59 60.34 5.00C60.34 3.28 59.92 2.69 58.16 2.69C56.46 2.69 55.93 3.26 55.93 5.26C55.93 7.20 56.03 7.52 56.49 7.94C57.02 8.43 58.07 8.79 58.56 9.28C58.84 9.56 58.87 9.67 58.87 10.44C58.87 11.77 58.70 11.90 58.14 11.90C57.61 11.90 57.46 11.70 57.46 10.54C57.46 10.28 57.46 10.08 57.48 9.93L56.04 9.93C55.99 10.18 55.94 10.57 55.94 11.02C55.94 13.20 56.56 13.65 58.11 13.65C59.89 13.65 60.47 13.09 60.47 10.47C60.47 8.57 60.30 8.29 59.63 7.83C59.18 7.52 58.23 7.13 57.79 6.75C57.51 6.50 57.50 6.41 57.50 5.52C57.50 4.51 57.64 4.37 58.16 4.37C58.76 4.37 58.84 4.69 58.84 5.50C58.84 5.84 58.83 6.01 58.81 6.16ZM63.99 13.47L63.99 4.62L65.48 4.62L65.48 2.87L60.77 2.87L60.77 4.62L62.27 4.62L62.27 13.47Z"></path></g><!----><g data-v-423bf9ae="" id="5dcc80d3-ac6f-436c-b173-eb22e0ab5e5e" transform="matrix(2.8125,0,0,2.8125,-7.170000076293945,0)" stroke="none" fill="black"><path d="M2.83 18.247l26.34-9.124L2.83 0zM29.17 32V13.753L2.83 22.877z"></path></g><!----></svg>